<svg width="47" height="50" viewBox="0 0 47 50" fill="none" xmlns="http://www.w3.org/2000/svg">
<g style="mix-blend-mode:multiply">
<path fill-rule="evenodd" clip-rule="evenodd" d="M17.4297 43.5363L13.0173 26.1817C12.9641 25.5979 13.034 25.0087 13.2223 24.4589L20.7369 2.50072C21.2515 0.997075 22.5696 0 24.0427 0C25.4868 0 26.7851 0.958932 27.3198 2.4207L35.7494 25.4659C36.0922 26.4033 36.083 27.45 35.7237 28.3799L31.5251 44.6475C30.9743 46.0729 29.6931 47 28.2734 47H20.9403C19.127 47 17.609 45.5022 17.4297 43.5363Z" fill="#297D7D"/>
</g>
<g style="mix-blend-mode:multiply">
<path fill-rule="evenodd" clip-rule="evenodd" d="M33.6685 47.8655L18.4203 20.6524C17.6924 19.1989 17.9246 17.4372 19.0029 16.2314L27.0104 7.27724C28.8299 5.24281 32.0851 5.709 33.2852 8.17605L46.6001 35.5511C46.9705 36.3128 47.0877 37.1767 46.9345 38.0125L46.942 46.8046C46.6019 48.6573 45.0163 50 43.1687 50H37.0871C35.645 50 34.3246 49.1756 33.6685 47.8655Z" fill="#1B344B"/>
</g>
<g style="mix-blend-mode:multiply">
<path fill-rule="evenodd" clip-rule="evenodd" d="M0.303204 44.5617L13.0882 13.3978C14.0104 11.1502 16.6871 10.3048 18.6797 11.6321L24.2608 15.3489C25.5349 16.1976 26.1975 17.7413 25.948 19.2796L23.1137 36.7381C22.9932 37.4809 22.6665 38.1724 22.1731 38.7295L13.3268 48.7183C12.6038 49.5346 11.579 50 10.5043 50H3.81892C1.09035 50 -0.756039 47.1439 0.303204 44.5617Z" fill="#C5DC71"/>
</g>
</svg>
