<svg width="25" height="24" viewBox="0 0 25 24" fill="none" xmlns="http://www.w3.org/2000/svg">
<path d="M12.4981 0C5.59615 0 0 5.51123 0 12.3083C0 17.7455 3.58077 22.3578 8.54808 23.9869C9.17308 24.0988 9.61539 23.4692 9.61539 22.9951C9.61539 22.703 9.62115 22.3616 9.61539 21.3356C6.13846 22.079 5.04808 19.6762 5.04808 19.6762C4.47885 18.2538 3.78654 17.8499 3.78654 17.8499C2.65192 17.0856 3.87115 17.1026 3.87115 17.1026C5.12692 17.1899 5.76923 18.2538 5.76923 18.2538C6.73077 19.9132 8.90385 19.7539 9.61539 19.4391C9.61539 18.6862 9.7 18.1343 9.91154 17.7835C5.98269 17.1064 3.84038 14.8686 3.84615 11.7735C3.85 9.94524 4.49038 8.52097 5.53077 7.47031C5.075 6.90515 4.76731 4.97831 5.69423 3.793C8.01346 3.793 9.4 5.44864 9.4 5.44864C9.4 5.44864 10.4865 4.97831 12.4962 4.97831C14.5058 4.97831 15.5885 5.42209 15.5885 5.42209C15.5885 5.42209 16.9788 3.793 19.2981 3.793C20.225 4.97831 19.9173 6.90515 19.5519 7.43048C20.5462 8.46028 21.1538 9.88076 21.1538 11.7735C21.1538 14.8667 19.0192 17.1026 15.1 17.7816C15.35 18.1533 15.3846 18.6653 15.3846 19.4391C15.3846 21.0834 15.3846 22.5911 15.3846 22.9951C15.3846 23.4692 15.8231 24.1045 16.4577 23.985C21.4212 22.354 25 17.7436 25 12.3083C25 5.51123 19.4038 0 12.4981 0Z" fill="black"/>
</svg>
